<svg width="54" height="54" viewBox="0 0 54 54" fill="none" xmlns="http://www.w3.org/2000/svg">
<path d="M27 45C31.7739 45 36.3523 43.1036 39.7279 39.7279C43.1036 36.3523 45 31.7739 45 27C45 22.2261 43.1036 17.6477 39.7279 14.2721C36.3523 10.8964 31.7739 9 27 9C22.2261 9 17.6477 10.8964 14.2721 14.2721C10.8964 17.6477 9 22.2261 9 27C9 31.7739 10.8964 36.3523 14.2721 39.7279C17.6477 43.1036 22.2261 45 27 45ZM27 49.5C14.5733 49.5 4.5 39.4268 4.5 27C4.5 14.5733 14.5733 4.5 27 4.5C39.4268 4.5 49.5 14.5733 49.5 27C49.5 39.4268 39.4268 49.5 27 49.5Z" fill="#353744"/>
<path d="M38.25 20.1308C37.422 20.4908 36.5332 20.7383 35.5995 20.8463C36.5535 20.2838 37.2825 19.3928 37.629 18.333C36.7199 18.8628 35.728 19.2355 34.695 19.4355C34.2605 18.9801 33.7377 18.6179 33.1586 18.3711C32.5795 18.1243 31.9562 17.998 31.3268 18C28.7775 18 26.712 20.0363 26.712 22.545C26.712 22.9005 26.7525 23.247 26.8313 23.58C25.0027 23.4932 23.2124 23.0262 21.5745 22.2087C19.9365 21.3913 18.487 20.2415 17.3183 18.8325C16.9078 19.5235 16.6916 20.3126 16.6928 21.1163C16.6928 22.6913 17.5095 24.0863 18.747 24.8985C18.0145 24.8755 17.2977 24.6805 16.6545 24.3293V24.3855C16.6615 25.4418 17.0343 26.463 17.7096 27.2753C18.3848 28.0876 19.3208 28.6407 20.358 28.8405C19.6771 29.0206 18.9646 29.0467 18.2723 28.917C18.574 29.8257 19.1513 30.6179 19.9238 31.1836C20.6963 31.7493 21.6258 32.0604 22.5832 32.0738C20.9407 33.3395 18.9239 34.0234 16.8502 34.0178C16.479 34.0178 16.1123 33.9953 15.75 33.9548C17.8661 35.2942 20.3197 36.0035 22.824 36C31.3155 36 35.9573 29.0745 35.9573 23.067L35.9415 22.4775C36.8467 21.8414 37.6288 21.0463 38.25 20.1308Z" fill="#353744"/>
</svg>
