<svg width="54" height="54" viewBox="0 0 54 54" fill="none" xmlns="http://www.w3.org/2000/svg">
<path d="M38.25 29.383V37.7012H33.4282V29.9387C33.4282 27.9902 32.7307 26.6605 30.9847 26.6605C29.6527 26.6605 28.8585 27.556 28.5097 28.4245C28.3837 28.735 28.35 29.167 28.35 29.599V37.7012H23.526C23.526 37.7012 23.5912 24.5567 23.526 23.1955H28.35V25.2497L28.3185 25.297H28.35V25.252C28.9912 24.262 30.1342 22.8534 32.697 22.8534C35.8695 22.8534 38.25 24.928 38.25 29.383ZM18.4792 16.2002C16.83 16.2002 15.75 17.2847 15.75 18.7067C15.75 20.1017 16.7985 21.2154 18.4162 21.2154H18.4477C20.1307 21.2154 21.177 20.0994 21.177 18.7067C21.1455 17.2847 20.1307 16.2002 18.4792 16.2002ZM16.0357 37.7012H20.8597V23.1955H16.0357V37.7012Z" fill="#353744"/>
<path d="M27 45C31.7739 45 36.3523 43.1036 39.7279 39.7279C43.1036 36.3523 45 31.7739 45 27C45 22.2261 43.1036 17.6477 39.7279 14.2721C36.3523 10.8964 31.7739 9 27 9C22.2261 9 17.6477 10.8964 14.2721 14.2721C10.8964 17.6477 9 22.2261 9 27C9 31.7739 10.8964 36.3523 14.2721 39.7279C17.6477 43.1036 22.2261 45 27 45ZM27 49.5C14.5733 49.5 4.5 39.4268 4.5 27C4.5 14.5733 14.5733 4.5 27 4.5C39.4268 4.5 49.5 14.5733 49.5 27C49.5 39.4268 39.4268 49.5 27 49.5Z" fill="#353744"/>
</svg>
