<svg width="54" height="54" viewBox="0 0 54 54" fill="none" xmlns="http://www.w3.org/2000/svg">
<path d="M27 45C31.7739 45 36.3523 43.1036 39.7279 39.7279C43.1036 36.3523 45 31.7739 45 27C45 22.2261 43.1036 17.6477 39.7279 14.2721C36.3523 10.8964 31.7739 9 27 9C22.2261 9 17.6477 10.8964 14.2721 14.2721C10.8964 17.6477 9 22.2261 9 27C9 31.7739 10.8964 36.3523 14.2721 39.7279C17.6477 43.1036 22.2261 45 27 45ZM27 49.5C14.5733 49.5 4.5 39.4268 4.5 27C4.5 14.5733 14.5733 4.5 27 4.5C39.4268 4.5 49.5 14.5733 49.5 27C49.5 39.4268 39.4268 49.5 27 49.5Z" fill="#353744"/>
<path d="M18.4185 21.672C18.4326 21.5347 18.4144 21.396 18.3651 21.267C18.3159 21.138 18.2371 21.0224 18.135 20.9295L16.0335 18.3825V18H22.5585L27.5985 29.142L32.031 18H38.25V18.3825L36.4545 20.115C36.3782 20.1736 36.3192 20.2519 36.2839 20.3415C36.2487 20.4311 36.2384 20.5286 36.2542 20.6235V33.3765C36.2388 33.4711 36.2493 33.5681 36.2846 33.6572C36.3198 33.7464 36.3785 33.8243 36.4545 33.8827L38.2095 35.6197V36H29.385V35.6175L31.2007 33.84C31.3807 33.66 31.3807 33.6082 31.3807 33.3337V23.0265L26.325 35.9572H25.6432L19.7617 23.0265V31.6935C19.7376 31.8731 19.7544 32.0559 19.8109 32.2281C19.8674 32.4004 19.9621 32.5576 20.088 32.688L22.4505 35.577V35.9595H15.75V35.577L18.1125 32.688C18.2375 32.5576 18.3303 32.3997 18.3834 32.227C18.4365 32.0544 18.4486 31.8716 18.4185 31.6935V21.672Z" fill="#353744"/>
</svg>
