<svg width="54" height="54" viewBox="0 0 54 54" fill="none" xmlns="http://www.w3.org/2000/svg">
<path d="M22.7893 38.7012C23.0593 38.7012 23.2641 38.6922 23.3991 38.6742C23.5575 38.6421 23.7003 38.5572 23.8041 38.4334C23.9391 38.2917 24.0066 38.0869 24.0066 37.8169L23.9976 36.5637C23.9908 35.7649 23.9886 35.1304 23.9886 34.6647L23.5656 34.7389C23.2271 34.7922 22.8843 34.8133 22.5418 34.8019C22.1116 34.7943 21.6826 34.7514 21.2593 34.6737C20.8102 34.5899 20.3874 34.4002 20.0263 34.1202C19.6478 33.8338 19.3653 33.4391 19.2163 32.9884L19.0318 32.5632C18.8767 32.2283 18.6818 31.9133 18.4513 31.6249C18.2445 31.3293 17.9688 31.0883 17.6481 30.9229L17.5198 30.8329C17.4315 30.7679 17.3514 30.6923 17.2813 30.6079C17.2133 30.5312 17.1572 30.4448 17.1148 30.3514C17.0788 30.2659 17.1081 30.1939 17.2048 30.1399C17.3747 30.0717 17.5578 30.0432 17.7403 30.0567L18.1093 30.1129C18.3568 30.1602 18.6606 30.3087 19.0228 30.5539C19.3828 30.8014 19.6821 31.1187 19.9161 31.5124C20.1996 32.0164 20.5393 32.4012 20.9398 32.6644C21.2934 32.9137 21.7134 33.0516 22.1458 33.0604C22.5508 33.0604 22.9018 33.0312 23.1966 32.9704C23.4835 32.9109 23.7622 32.8173 24.0268 32.6914C24.1371 31.8702 24.4363 31.2357 24.9268 30.7947C24.2901 30.7317 23.659 30.6204 23.0391 30.4617C22.4338 30.2949 21.8518 30.053 21.3066 29.7417C20.7356 29.4319 20.2311 29.013 19.8216 28.5087C19.4301 28.0159 19.1083 27.3724 18.8541 26.5737C18.589 25.6764 18.4623 24.7439 18.4783 23.8084C18.4783 22.3234 18.9643 21.0567 19.9341 20.0127C19.4796 18.8944 19.5223 17.6412 20.0623 16.2529C20.4201 16.1404 20.9488 16.2237 21.6486 16.5004C22.3483 16.7772 22.8636 17.0134 23.1876 17.2114C23.5138 17.4072 23.7726 17.5714 23.9706 17.7064C25.123 17.3864 26.3138 17.2259 27.5098 17.2294C28.7248 17.2294 29.9061 17.3869 31.0491 17.7087L31.7466 17.2654C32.2281 16.9729 32.7928 16.7007 33.4431 16.4554C34.0956 16.2079 34.5928 16.1404 34.9371 16.2529C35.4906 17.6412 35.5401 18.8944 35.0833 20.0104C36.0553 21.0567 36.5413 22.3212 36.5413 23.8084C36.5413 24.8524 36.4153 25.7772 36.1633 26.5827C35.9113 27.3882 35.5851 28.0317 35.1868 28.5177C34.7707 29.017 34.2637 29.4331 33.6928 29.7439C33.1477 30.0553 32.5656 30.2972 31.9603 30.4639C31.3397 30.622 30.7078 30.7326 30.0703 30.7947C30.7093 31.3459 31.0288 32.2189 31.0288 33.4114V37.8147C31.0288 38.0239 31.0603 38.1927 31.1211 38.3232C31.1497 38.3853 31.1905 38.4411 31.2412 38.4871C31.2918 38.5331 31.3512 38.5684 31.4158 38.5909C31.5508 38.6382 31.6723 38.6697 31.7758 38.6809C31.8816 38.6944 32.0301 38.7012 32.2258 38.7012H22.7916H22.7893Z" fill="#353744"/>
<path d="M27 45C31.7739 45 36.3523 43.1036 39.7279 39.7279C43.1036 36.3523 45 31.7739 45 27C45 22.2261 43.1036 17.6477 39.7279 14.2721C36.3523 10.8964 31.7739 9 27 9C22.2261 9 17.6477 10.8964 14.2721 14.2721C10.8964 17.6477 9 22.2261 9 27C9 31.7739 10.8964 36.3523 14.2721 39.7279C17.6477 43.1036 22.2261 45 27 45ZM27 49.5C14.5732 49.5 4.5 39.4268 4.5 27C4.5 14.5733 14.5732 4.5 27 4.5C39.4267 4.5 49.5 14.5733 49.5 27C49.5 39.4268 39.4267 49.5 27 49.5Z" fill="#353744"/>
</svg>
