<svg width="54" height="54" viewBox="0 0 54 54" fill="none" xmlns="http://www.w3.org/2000/svg">
<path d="M27 45C31.7739 45 36.3523 43.1036 39.7279 39.7279C43.1036 36.3523 45 31.7739 45 27C45 22.2261 43.1036 17.6477 39.7279 14.2721C36.3523 10.8964 31.7739 9 27 9C22.2261 9 17.6477 10.8964 14.2721 14.2721C10.8964 17.6477 9 22.2261 9 27C9 31.7739 10.8964 36.3523 14.2721 39.7279C17.6477 43.1036 22.2261 45 27 45ZM27 49.5C14.5733 49.5 4.5 39.4268 4.5 27C4.5 14.5733 14.5733 4.5 27 4.5C39.4268 4.5 49.5 14.5733 49.5 27C49.5 39.4268 39.4268 49.5 27 49.5Z" fill="#353744"/>
<path d="M36.0675 22.23H30.4313V20.8305H36.0698V22.2322L36.0675 22.23ZM26.6783 27.9742C27.0428 28.5367 27.2228 29.2207 27.2228 30.024C27.2228 30.8565 27.0203 31.599 26.6018 32.2582C26.323 32.7214 25.9503 33.121 25.5078 33.4314C25.0652 33.7418 24.5626 33.9561 24.0323 34.0605C23.3812 34.1907 22.7185 34.2541 22.0545 34.2495H15.75V20.25H22.5113C24.2145 20.277 25.4228 20.772 26.136 21.7418C26.5635 22.3358 26.7773 23.049 26.7773 23.8792C26.7773 24.7342 26.5635 25.4205 26.1293 25.9403C25.8908 26.2328 25.5353 26.4983 25.065 26.7368C25.776 26.9978 26.316 27.4072 26.6783 27.9742ZM18.9788 25.7692H21.942C22.5495 25.7692 23.0423 25.6545 23.4203 25.4227C23.8005 25.191 23.9895 24.7815 23.9895 24.192C23.9895 23.5395 23.7398 23.1075 23.238 22.9005C22.7019 22.7399 22.1437 22.6655 21.5843 22.68H18.9788V25.7692ZM24.2752 29.8238C24.2752 29.097 23.976 28.5952 23.3843 28.3252C23.0512 28.1722 22.5833 28.0935 21.9848 28.0867H18.9788V31.8172H21.9375C22.545 31.8172 23.0175 31.7385 23.355 31.572C23.967 31.2682 24.2752 30.6877 24.2752 29.8238ZM38.16 27.5468C38.2275 28.0058 38.259 28.6695 38.2478 29.538H30.9465C30.987 30.546 31.3335 31.2502 31.995 31.653C32.391 31.9072 32.8725 32.031 33.4395 32.031C34.0358 32.031 34.5195 31.8802 34.8953 31.5697C35.119 31.3788 35.3019 31.1446 35.433 30.8813H38.1105C38.0385 31.4775 37.7168 32.0805 37.1385 32.6947C36.2385 33.669 34.983 34.1572 33.3653 34.1572C32.0795 34.1739 30.8289 33.7374 29.8328 32.9243C28.8158 32.1008 28.3028 30.7642 28.3028 28.908C28.3028 27.1687 28.764 25.8368 29.6843 24.9097C30.6068 23.9805 31.8015 23.5193 33.273 23.5193C34.1438 23.5193 34.929 23.6745 35.631 23.9873C36.3285 24.3023 36.9068 24.795 37.3613 25.4722C37.773 26.0708 38.0363 26.7593 38.16 27.5468ZM35.5275 27.8078C35.478 27.1103 35.244 26.5837 34.8255 26.2237C34.3935 25.8559 33.8401 25.6618 33.273 25.6793C32.598 25.6793 32.0783 25.875 31.707 26.2552C31.3358 26.6377 31.104 27.1553 31.0095 27.8078H35.5275Z" fill="#353744"/>
</svg>
