<svg width="135" height="32" viewBox="0 0 135 32" fill="none" xmlns="http://www.w3.org/2000/svg">
<path d="M0 31.5128H8.24444V22.1816H12.629C15.8893 22.1816 16.1141 24.8423 16.339 27.3906C16.4514 28.7772 16.6013 30.1638 17.0135 31.5128H25.258C24.5085 30.2762 24.471 27.0908 24.3586 25.7792C24.0588 22.444 22.6722 19.9706 20.4237 19.1087C23.1594 18.0969 24.4335 15.1739 24.4335 12.4007C24.4335 7.34165 20.3863 4.75589 15.7019 4.75589H0V31.5128ZM8.24444 11.1266H12.1043C15.2522 11.1266 16.1891 12.1009 16.1891 13.7873C16.1891 16.1857 14.0905 16.448 12.554 16.448H8.24444V11.1266Z" fill="#353744"/>
<path d="M48.0505 21.7694C48.0505 16.3731 44.7528 11.5763 37.4452 11.5763C30.1376 11.5763 26.8398 16.3731 26.8398 21.7694C26.8398 27.1658 30.1376 32 37.4452 32C44.7528 32 48.0505 27.1658 48.0505 21.7694ZM40.6305 21.7694C40.6305 23.8305 40.2558 26.6037 37.4452 26.6037C34.6346 26.6037 34.2598 23.8305 34.2598 21.7694C34.2598 19.7083 34.6346 16.9727 37.4452 16.9727C40.2558 16.9727 40.6305 19.7083 40.6305 21.7694Z" fill="#353744"/>
<path d="M69.2568 17.7221C69.0695 12.738 64.0104 11.5763 59.8132 11.5763C55.9158 11.5763 50.6319 12.8504 50.6319 17.7596C50.6319 21.0949 52.9178 22.8937 58.5765 23.868C62.0242 24.4676 62.6613 24.8049 62.6613 25.9291C62.6613 27.0534 61.1248 27.4281 60.1505 27.4281C59.2511 27.4281 58.5391 27.2033 58.1643 26.866C57.6022 26.3788 57.3024 25.8167 57.2649 25.1421H50.1822C50.2946 30.1638 55.3162 32 59.8881 32C64.61 32 69.7815 30.5385 69.7815 25.1421C69.7815 21.9568 67.6079 20.4953 65.1346 19.7083C62.6613 18.8839 59.8507 18.734 58.614 18.2093C58.2018 18.0219 57.7521 17.7596 57.7521 17.1975C57.7521 15.9234 58.9513 15.6985 60.0006 15.6985C60.6002 15.6985 61.1998 15.8859 61.6495 16.2606C62.1366 16.5979 62.4739 17.0851 62.5114 17.7221H69.2568Z" fill="#353744"/>
<path d="M72.7877 31.5128H80.2077V21.2448C80.2077 18.1344 81.894 17.4973 83.1682 17.4973C85.3417 17.4973 85.604 19.0712 85.604 21.3197V31.5128H93.024V18.1718C93.024 13.7124 89.8387 11.5763 86.3535 11.5763C83.2056 11.5763 81.5567 12.6631 80.2826 14.162H80.2077V4.75589H72.7877V31.5128Z" fill="#353744"/>
<path d="M97.0877 31.5128H104.508V21.2448C104.508 18.1344 106.194 17.4973 107.468 17.4973C109.642 17.4973 109.904 19.0712 109.904 21.3197V31.5128H117.324V18.1718C117.324 13.7124 114.139 11.5763 110.654 11.5763C107.693 11.5763 105.707 12.5881 104.32 14.5368H104.245V12.0635H97.0877V31.5128Z" fill="#353744"/>
<path d="M121.538 31.5128H128.958V12.0635H121.538V31.5128Z" fill="#353744"/>
<circle cx="129.025" cy="5.11019" r="5.11019" fill="#FFB800"/>
</svg>
