<svg width="54" height="54" viewBox="0 0 54 54" fill="none" xmlns="http://www.w3.org/2000/svg">
<path d="M27 47.25C15.8355 47.25 6.75 38.1667 6.75 27C6.75 15.8333 15.8355 6.75 27 6.75C38.1645 6.75 47.25 15.8333 47.25 27C47.25 38.1667 38.1645 47.25 27 47.25ZM27 11.25C18.315 11.25 11.25 18.3173 11.25 27C11.25 35.6828 18.315 42.75 27 42.75C35.685 42.75 42.75 35.6828 42.75 27C42.75 18.3173 35.685 11.25 27 11.25ZM27 14.625C20.1757 14.625 14.625 20.178 14.625 27C14.625 33.822 20.1757 39.375 27 39.375C33.8242 39.375 39.375 33.822 39.375 27C39.375 20.178 33.8242 14.625 27 14.625ZM37.1025 26.7795C34.7917 26.3511 32.4191 26.3832 30.1208 26.874C29.8332 26.1396 29.5202 25.4154 29.1825 24.7028C31.1842 23.502 32.9303 21.9195 34.3215 20.0453C36.0576 21.8635 37.0497 24.2661 37.1025 26.7795ZM32.6025 18.576C31.4057 20.2279 29.8958 21.6285 28.1588 22.698C27.0755 20.7656 25.8 18.9474 24.3517 17.271C25.2128 17.021 26.1035 16.8878 27 16.875C29.0723 16.875 30.996 17.505 32.6025 18.576ZM22.1602 18.162C23.706 19.8675 25.0357 21.7395 26.1562 23.7262C23.3209 24.9363 20.1905 25.2784 17.1607 24.7095C17.4877 23.3283 18.1019 22.0315 18.9633 20.9034C19.8247 19.7753 20.914 18.8412 22.1602 18.162ZM16.875 27C17.928 27.144 18.981 27.2723 20.0228 27.2723C22.4922 27.2626 24.9327 26.7393 27.189 25.7355C27.4657 26.3228 27.7245 26.9145 27.963 27.5198C24.5961 28.7323 21.6729 30.9318 19.575 33.831C17.846 31.9758 16.8816 29.536 16.875 27ZM21.258 35.3228C23.1023 32.7046 25.7093 30.7191 28.7235 29.637C29.4365 31.899 29.8865 34.2357 30.0645 36.6007C29.0765 36.9337 28.0425 37.1106 27 37.125C24.9468 37.125 22.9429 36.496 21.258 35.3228ZM32.22 35.631C31.9972 33.381 31.554 31.1693 30.8857 29.0228C32.879 28.6308 34.9296 28.6316 36.9225 29.025C36.6356 30.3905 36.0698 31.682 35.2606 32.8187C34.4514 33.9554 33.4163 34.9128 32.22 35.631Z" fill="#353744"/>
</svg>
