<svg width="20" height="23" viewBox="0 0 20 23" fill="none" xmlns="http://www.w3.org/2000/svg">
<path d="M5.78935 22.7012C6.05935 22.7012 6.2641 22.6922 6.3991 22.6742C6.55747 22.6421 6.70027 22.5572 6.8041 22.4334C6.9391 22.2917 7.0066 22.0869 7.0066 21.8169L6.9976 20.5637C6.99085 19.7649 6.9886 19.1304 6.9886 18.6647L6.5656 18.7389C6.2271 18.7922 5.88432 18.8133 5.54185 18.8019C5.11156 18.7943 4.68262 18.7514 4.25935 18.6737C3.81016 18.5899 3.38745 18.4002 3.02635 18.1202C2.64781 17.8338 2.36532 17.4391 2.21635 16.9884L2.03185 16.5632C1.87666 16.2283 1.68176 15.9133 1.45135 15.6249C1.24448 15.3293 0.968807 15.0883 0.648098 14.9229L0.519848 14.8329C0.43153 14.7679 0.351443 14.6923 0.281348 14.6079C0.213319 14.5312 0.157193 14.4448 0.114848 14.3514C0.0788481 14.2659 0.108098 14.1939 0.204848 14.1399C0.374658 14.0717 0.557834 14.0432 0.740348 14.0567L1.10935 14.1129C1.35685 14.1602 1.6606 14.3087 2.02285 14.5539C2.38285 14.8014 2.6821 15.1187 2.9161 15.5124C3.1996 16.0164 3.53935 16.4012 3.93985 16.6644C4.29336 16.9137 4.71335 17.0516 5.14585 17.0604C5.55085 17.0604 5.90185 17.0312 6.1966 16.9704C6.4835 16.9109 6.76224 16.8173 7.02685 16.6914C7.1371 15.8702 7.43635 15.2357 7.92685 14.7947C7.29007 14.7317 6.659 14.6204 6.0391 14.4617C5.43384 14.2949 4.85182 14.053 4.3066 13.7417C3.73562 13.4319 3.23106 13.013 2.8216 12.5087C2.4301 12.0159 2.10835 11.3724 1.8541 10.5737C1.589 9.67639 1.4623 8.74392 1.47835 7.80843C1.47835 6.32343 1.96435 5.05668 2.9341 4.01268C2.4796 2.89443 2.52235 1.64118 3.06235 0.25293C3.4201 0.14043 3.94885 0.223679 4.6486 0.500429C5.34835 0.777179 5.8636 1.01343 6.1876 1.21143C6.51385 1.40718 6.7726 1.57143 6.9706 1.70643C8.123 1.38638 9.31384 1.22589 10.5098 1.22943C11.7248 1.22943 12.9061 1.38693 14.0491 1.70868L14.7466 1.26543C15.2281 0.972929 15.7928 0.700679 16.4431 0.455429C17.0956 0.207929 17.5928 0.14043 17.9371 0.25293C18.4906 1.64118 18.5401 2.89443 18.0833 4.01043C19.0553 5.05668 19.5413 6.32118 19.5413 7.80843C19.5413 8.85243 19.4153 9.77718 19.1633 10.5827C18.9113 11.3882 18.5851 12.0317 18.1868 12.5177C17.7707 13.017 17.2637 13.4331 16.6928 13.7439C16.1477 14.0553 15.5656 14.2972 14.9603 14.4639C14.3397 14.622 13.7078 14.7326 13.0703 14.7947C13.7093 15.3459 14.0288 16.2189 14.0288 17.4114V21.8147C14.0288 22.0239 14.0603 22.1927 14.1211 22.3232C14.1497 22.3853 14.1905 22.4411 14.2412 22.4871C14.2918 22.5331 14.3512 22.5684 14.4158 22.5909C14.5508 22.6382 14.6723 22.6697 14.7758 22.6809C14.8816 22.6944 15.0301 22.7012 15.2258 22.7012H5.7916H5.78935Z" fill="#353744"/>
</svg>
