<svg width="24" height="22" viewBox="0 0 24 22" fill="none" xmlns="http://www.w3.org/2000/svg">
<path d="M23.25 13.383V21.7012H18.4282V13.9387C18.4282 11.9902 17.7307 10.6605 15.9847 10.6605C14.6527 10.6605 13.8585 11.556 13.5097 12.4245C13.3837 12.735 13.35 13.167 13.35 13.599V21.7012H8.526C8.526 21.7012 8.59125 8.5567 8.526 7.19545H13.35V9.2497L13.3185 9.29695H13.35V9.25195C13.9912 8.26195 15.1342 6.85345 17.697 6.85345C20.8695 6.85345 23.25 8.92795 23.25 13.383ZM3.47925 0.200195C1.83 0.200195 0.75 1.2847 0.75 2.7067C0.75 4.1017 1.7985 5.21545 3.41625 5.21545H3.44775C5.13075 5.21545 6.177 4.09945 6.177 2.7067C6.1455 1.2847 5.13075 0.200195 3.47925 0.200195ZM1.03575 21.7012H5.85975V7.19545H1.03575V21.7012Z" fill="#353744"/>
</svg>
