<svg width="64" height="64" viewBox="0 0 64 64" fill="none" xmlns="http://www.w3.org/2000/svg">
<path d="M31.9999 53.3335C37.6579 53.3335 43.0841 51.0859 47.0849 47.0851C51.0857 43.0843 53.3333 37.6581 53.3333 32.0002C53.3333 26.3422 51.0857 20.916 47.0849 16.9152C43.0841 12.9144 37.6579 10.6668 31.9999 10.6668C26.342 10.6668 20.9158 12.9144 16.915 16.9152C12.9142 20.916 10.6666 26.3422 10.6666 32.0002C10.6666 37.6581 12.9142 43.0843 16.915 47.0851C20.9158 51.0859 26.342 53.3335 31.9999 53.3335ZM31.9999 58.6668C17.2719 58.6668 5.33325 46.7282 5.33325 32.0002C5.33325 17.2722 17.2719 5.3335 31.9999 5.3335C46.7279 5.3335 58.6666 17.2722 58.6666 32.0002C58.6666 46.7282 46.7279 58.6668 31.9999 58.6668Z" fill="white"/>
<path d="M42.7468 26.3467H36.0668V24.688H42.7494V26.3493L42.7468 26.3467ZM31.6188 33.1547C32.0508 33.8213 32.2641 34.632 32.2641 35.584C32.2641 36.5707 32.0241 37.4507 31.5281 38.232C31.1977 38.7809 30.756 39.2545 30.2315 39.6224C29.707 39.9902 29.1113 40.2442 28.4827 40.368C27.7111 40.5223 26.9257 40.5974 26.1387 40.592H18.6667V24H26.6801C28.6988 24.032 30.1308 24.6187 30.9761 25.768C31.4828 26.472 31.7361 27.3173 31.7361 28.3013C31.7361 29.3147 31.4828 30.128 30.9681 30.744C30.6854 31.0907 30.2641 31.4053 29.7068 31.688C30.5494 31.9973 31.1894 32.4827 31.6188 33.1547ZM22.4934 30.5413H26.0054C26.7254 30.5413 27.3094 30.4053 27.7574 30.1307C28.2081 29.856 28.4321 29.3707 28.4321 28.672C28.4321 27.8987 28.1361 27.3867 27.5414 27.1413C26.906 26.951 26.2445 26.8628 25.5814 26.88H22.4934V30.5413ZM28.7707 35.3467C28.7707 34.4853 28.4161 33.8907 27.7147 33.5707C27.3201 33.3893 26.7654 33.296 26.0561 33.288H22.4934V37.7093H26.0001C26.7201 37.7093 27.2801 37.616 27.6801 37.4187C28.4054 37.0587 28.7707 36.3707 28.7707 35.3467ZM45.2268 32.648C45.3068 33.192 45.3441 33.9787 45.3308 35.008H36.6774C36.7254 36.2027 37.1361 37.0373 37.9201 37.5147C38.3894 37.816 38.9601 37.9627 39.6321 37.9627C40.3388 37.9627 40.9121 37.784 41.3574 37.416C41.6226 37.1896 41.8393 36.9121 41.9948 36.6H45.1681C45.0828 37.3067 44.7014 38.0213 44.0161 38.7493C42.9494 39.904 41.4614 40.4827 39.5441 40.4827C38.0202 40.5024 36.538 39.985 35.3574 39.0213C34.1521 38.0453 33.5441 36.4613 33.5441 34.2613C33.5441 32.2 34.0908 30.6213 35.1814 29.5227C36.2748 28.4213 37.6908 27.8747 39.4348 27.8747C40.4668 27.8747 41.3974 28.0587 42.2294 28.4293C43.0561 28.8027 43.7414 29.3867 44.2801 30.1893C44.7681 30.8987 45.0801 31.7147 45.2268 32.648ZM42.1068 32.9573C42.0481 32.1307 41.7708 31.5067 41.2748 31.08C40.7628 30.644 40.1069 30.414 39.4348 30.4347C38.6348 30.4347 38.0188 30.6667 37.5788 31.1173C37.1388 31.5707 36.8641 32.184 36.7521 32.9573H42.1068Z" fill="white"/>
</svg>
