<svg width="64" height="64" viewBox="0 0 64 64" fill="none" xmlns="http://www.w3.org/2000/svg">
<path d="M31.9999 53.3335C37.6579 53.3335 43.0841 51.0859 47.0849 47.0851C51.0856 43.0843 53.3332 37.6581 53.3332 32.0002C53.3332 26.3422 51.0856 20.916 47.0849 16.9152C43.0841 12.9144 37.6579 10.6668 31.9999 10.6668C26.342 10.6668 20.9157 12.9144 16.915 16.9152C12.9142 20.916 10.6666 26.3422 10.6666 32.0002C10.6666 37.6581 12.9142 43.0843 16.915 47.0851C20.9157 51.0859 26.342 53.3335 31.9999 53.3335ZM31.9999 58.6668C17.2719 58.6668 5.33325 46.7282 5.33325 32.0002C5.33325 17.2722 17.2719 5.3335 31.9999 5.3335C46.7279 5.3335 58.6666 17.2722 58.6666 32.0002C58.6666 46.7282 46.7279 58.6668 31.9999 58.6668Z" fill="white"/>
<path d="M45.3334 23.8589C44.3521 24.2855 43.2987 24.5789 42.1921 24.7069C43.3227 24.0402 44.1867 22.9842 44.5974 21.7282C43.52 22.3561 42.3444 22.7978 41.1201 23.0349C40.6051 22.4951 39.9855 22.0658 39.2992 21.7733C38.6129 21.4808 37.8741 21.3312 37.1281 21.3335C34.1067 21.3335 31.6587 23.7469 31.6587 26.7202C31.6587 27.1415 31.7067 27.5522 31.8001 27.9468C29.633 27.8439 27.5111 27.2904 25.5698 26.3216C23.6286 25.3528 21.9105 23.99 20.5254 22.3202C20.0389 23.1391 19.7828 24.0743 19.7841 25.0269C19.7841 26.8935 20.7521 28.5468 22.2187 29.5095C21.3506 29.4823 20.501 29.2512 19.7387 28.8348V28.9015C19.747 30.1534 20.1889 31.3637 20.9892 32.3265C21.7895 33.2892 22.8988 33.9447 24.1281 34.1815C23.321 34.3949 22.4766 34.4259 21.6561 34.2722C22.0138 35.3492 22.6979 36.288 23.6135 36.9585C24.5291 37.6289 25.6307 37.9977 26.7654 38.0135C24.8186 39.5137 22.4285 40.3241 19.9707 40.3175C19.5307 40.3175 19.0961 40.2908 18.6667 40.2428C21.1747 41.8303 24.0826 42.671 27.0507 42.6668C37.1147 42.6668 42.6161 34.4588 42.6161 27.3388L42.5974 26.6402C43.6702 25.8863 44.5972 24.9439 45.3334 23.8589Z" fill="white"/>
</svg>
