<svg width="64" height="64" viewBox="0 0 64 64" fill="none" xmlns="http://www.w3.org/2000/svg">
<path d="M31.9999 53.3335C37.6579 53.3335 43.0841 51.0859 47.0849 47.0851C51.0856 43.0843 53.3333 37.6581 53.3333 32.0002C53.3333 26.3422 51.0856 20.916 47.0849 16.9152C43.0841 12.9144 37.6579 10.6668 31.9999 10.6668C26.342 10.6668 20.9158 12.9144 16.915 16.9152C12.9142 20.916 10.6666 26.3422 10.6666 32.0002C10.6666 37.6581 12.9142 43.0843 16.915 47.0851C20.9158 51.0859 26.342 53.3335 31.9999 53.3335ZM31.9999 58.6668C17.2719 58.6668 5.33325 46.7282 5.33325 32.0002C5.33325 17.2722 17.2719 5.3335 31.9999 5.3335C46.7279 5.3335 58.6666 17.2722 58.6666 32.0002C58.6666 46.7282 46.7279 58.6668 31.9999 58.6668Z" fill="white"/>
<path d="M21.8294 25.6855C21.8462 25.5228 21.8245 25.3583 21.7662 25.2055C21.7078 25.0527 21.6144 24.9157 21.4934 24.8055L19.0027 21.7868V21.3335H26.7361L32.7094 34.5388L37.9627 21.3335H45.3334V21.7868L43.2054 23.8402C43.1149 23.9097 43.0451 24.0025 43.0033 24.1086C42.9615 24.2148 42.9493 24.3303 42.9681 24.4428V39.5575C42.9498 39.6696 42.9622 39.7846 43.004 39.8902C43.0458 39.9959 43.1154 40.0882 43.2054 40.1575L45.2854 42.2162V42.6668H34.8267V42.2135L36.9787 40.1068C37.1921 39.8935 37.1921 39.8322 37.1921 39.5068V27.2908L31.2001 42.6162H30.3921L23.4214 27.2908V37.5628C23.3928 37.7757 23.4127 37.9924 23.4797 38.1965C23.5466 38.4006 23.6589 38.5869 23.8081 38.7415L26.6081 42.1655V42.6188H18.6667V42.1655L21.4667 38.7415C21.6149 38.5869 21.7248 38.3998 21.7878 38.1952C21.8508 37.9905 21.865 37.774 21.8294 37.5628V25.6855Z" fill="white"/>
</svg>
