<svg width="64" height="64" viewBox="0 0 64 64" fill="none" xmlns="http://www.w3.org/2000/svg">
<path d="M45.3334 34.8242V44.6829H39.6187V35.4829C39.6187 33.1735 38.7921 31.5975 36.7227 31.5975C35.1441 31.5975 34.2027 32.6589 33.7894 33.6882C33.6401 34.0562 33.6001 34.5682 33.6001 35.0802V44.6829H27.8827C27.8827 44.6829 27.9601 29.1042 27.8827 27.4909H33.6001V29.9255L33.5627 29.9815H33.6001V29.9282C34.3601 28.7549 35.7147 27.0855 38.7521 27.0855C42.5121 27.0855 45.3334 29.5442 45.3334 34.8242ZM21.9014 19.2002C19.9467 19.2002 18.6667 20.4855 18.6667 22.1709C18.6667 23.8242 19.9094 25.1442 21.8267 25.1442H21.8641C23.8587 25.1442 25.0987 23.8215 25.0987 22.1709C25.0614 20.4855 23.8587 19.2002 21.9014 19.2002ZM19.0054 44.6829H24.7227V27.4909H19.0054V44.6829Z" fill="white"/>
<path d="M31.9999 53.3335C37.6579 53.3335 43.0841 51.0859 47.0849 47.0851C51.0857 43.0843 53.3333 37.6581 53.3333 32.0002C53.3333 26.3422 51.0857 20.916 47.0849 16.9152C43.0841 12.9144 37.6579 10.6668 31.9999 10.6668C26.342 10.6668 20.9158 12.9144 16.915 16.9152C12.9142 20.916 10.6666 26.3422 10.6666 32.0002C10.6666 37.6581 12.9142 43.0843 16.915 47.0851C20.9158 51.0859 26.342 53.3335 31.9999 53.3335ZM31.9999 58.6668C17.2719 58.6668 5.33325 46.7282 5.33325 32.0002C5.33325 17.2722 17.2719 5.3335 31.9999 5.3335C46.7279 5.3335 58.6666 17.2722 58.6666 32.0002C58.6666 46.7282 46.7279 58.6668 31.9999 58.6668Z" fill="white"/>
</svg>
