<svg width="64" height="64" viewBox="0 0 64 64" fill="none" xmlns="http://www.w3.org/2000/svg">
<path d="M27.0095 45.868C27.3295 45.868 27.5722 45.8574 27.7322 45.836C27.9199 45.798 28.0891 45.6974 28.2122 45.5507C28.3722 45.3827 28.4522 45.14 28.4522 44.82L28.4415 43.3347C28.4335 42.388 28.4309 41.636 28.4309 41.084L27.9295 41.172C27.5284 41.2352 27.1221 41.2602 26.7162 41.2467C26.2062 41.2377 25.6979 41.1868 25.1962 41.0947C24.6638 40.9954 24.1628 40.7705 23.7349 40.4387C23.2862 40.0993 22.9514 39.6315 22.7749 39.0974L22.5562 38.5934C22.3723 38.1965 22.1413 37.8231 21.8682 37.4814C21.623 37.1309 21.2963 36.8454 20.9162 36.6494L20.7642 36.5427C20.6595 36.4656 20.5646 36.376 20.4815 36.276C20.4009 36.1851 20.3344 36.0827 20.2842 35.972C20.2415 35.8707 20.2762 35.7854 20.3909 35.7214C20.5921 35.6405 20.8092 35.6067 21.0255 35.6227L21.4629 35.6894C21.7562 35.7454 22.1162 35.9214 22.5455 36.212C22.9722 36.5054 23.3269 36.8814 23.6042 37.348C23.9402 37.9454 24.3429 38.4014 24.8175 38.7134C25.2365 39.0088 25.7343 39.1723 26.2469 39.1827C26.7269 39.1827 27.1429 39.148 27.4922 39.076C27.8322 39.0055 28.1626 38.8945 28.4762 38.7454C28.6069 37.772 28.9615 37.02 29.5429 36.4974C28.7882 36.4227 28.0402 36.2908 27.3055 36.1027C26.5882 35.905 25.8984 35.6183 25.2522 35.2494C24.5755 34.8822 23.9775 34.3857 23.4922 33.788C23.0282 33.204 22.6469 32.4414 22.3455 31.4947C22.0313 30.4312 21.8812 29.3261 21.9002 28.2174C21.9002 26.4574 22.4762 24.956 23.6255 23.7187C23.0869 22.3934 23.1375 20.908 23.7775 19.2627C24.2015 19.1294 24.8282 19.228 25.6575 19.556C26.4869 19.884 27.0975 20.164 27.4815 20.3987C27.8682 20.6307 28.1749 20.8254 28.4095 20.9854C29.7753 20.606 31.1867 20.4158 32.6042 20.42C34.0442 20.42 35.4442 20.6067 36.7989 20.988L37.6255 20.4627C38.1962 20.116 38.8655 19.7934 39.6362 19.5027C40.4095 19.2094 40.9989 19.1294 41.4069 19.2627C42.0629 20.908 42.1215 22.3934 41.5802 23.716C42.7322 24.956 43.3082 26.4547 43.3082 28.2174C43.3082 29.4547 43.1589 30.5507 42.8602 31.5054C42.5615 32.46 42.1749 33.2227 41.7029 33.7987C41.2096 34.3905 40.6088 34.8836 39.9322 35.252C39.2861 35.6211 38.5963 35.9078 37.8789 36.1054C37.1432 36.2927 36.3944 36.4238 35.6389 36.4974C36.3962 37.1507 36.7749 38.1854 36.7749 39.5987V44.8174C36.7749 45.0654 36.8122 45.2654 36.8842 45.42C36.9181 45.4937 36.9665 45.5598 37.0265 45.6143C37.0865 45.6688 37.157 45.7107 37.2335 45.7374C37.3935 45.7934 37.5375 45.8307 37.6602 45.844C37.7855 45.86 37.9615 45.868 38.1935 45.868H27.0122H27.0095Z" fill="white"/>
<path d="M31.9999 53.3335C37.6579 53.3335 43.0841 51.0859 47.0849 47.0851C51.0856 43.0843 53.3332 37.6581 53.3332 32.0002C53.3332 26.3422 51.0856 20.916 47.0849 16.9152C43.0841 12.9144 37.6579 10.6668 31.9999 10.6668C26.342 10.6668 20.9157 12.9144 16.915 16.9152C12.9142 20.916 10.6666 26.3422 10.6666 32.0002C10.6666 37.6581 12.9142 43.0843 16.915 47.0851C20.9157 51.0859 26.342 53.3335 31.9999 53.3335ZM31.9999 58.6668C17.2719 58.6668 5.33325 46.7282 5.33325 32.0002C5.33325 17.2722 17.2719 5.3335 31.9999 5.3335C46.7279 5.3335 58.6666 17.2722 58.6666 32.0002C58.6666 46.7282 46.7279 58.6668 31.9999 58.6668Z" fill="white"/>
</svg>
