<svg width="64" height="64" viewBox="0 0 64 64" fill="none" xmlns="http://www.w3.org/2000/svg">
<path d="M31.665 58.33C16.9637 58.33 5 46.3693 5 31.665C5 16.9607 16.9637 5 31.665 5C46.3663 5 58.33 16.9607 58.33 31.665C58.33 46.3693 46.3663 58.33 31.665 58.33ZM31.665 10.9256C20.2287 10.9256 10.9256 20.2316 10.9256 31.665C10.9256 43.0984 20.2287 52.4044 31.665 52.4044C43.1013 52.4044 52.4044 43.0984 52.4044 31.665C52.4044 20.2316 43.1013 10.9256 31.665 10.9256ZM31.665 15.3697C22.6789 15.3697 15.3697 22.6819 15.3697 31.665C15.3697 40.6481 22.6789 47.9603 31.665 47.9603C40.6511 47.9603 47.9603 40.6481 47.9603 31.665C47.9603 22.6819 40.6511 15.3697 31.665 15.3697ZM44.9679 31.3746C41.9251 30.8105 38.8008 30.8528 35.7744 31.4991C35.3957 30.5321 34.9836 29.5785 34.5389 28.64C37.1747 27.0589 39.4739 24.9751 41.3059 22.5071C43.5919 24.9014 44.8984 28.065 44.9679 31.3746ZM39.0423 20.5724C37.4663 22.7476 35.4781 24.5918 33.1908 26.0002C31.7644 23.4556 30.0849 21.0614 28.1778 18.8539C29.3116 18.5247 30.4845 18.3493 31.665 18.3325C34.3937 18.3325 36.9269 19.1621 39.0423 20.5724ZM25.2921 20.0272C27.3275 22.273 29.0785 24.738 30.554 27.3542C26.8204 28.9475 22.6983 29.3981 18.7088 28.6489C19.1394 26.8302 19.9481 25.1225 21.0824 23.637C22.2166 22.1516 23.651 20.9216 25.2921 20.0272ZM18.3325 31.665C19.7191 31.8546 21.1057 32.0235 22.4774 32.0235C25.7292 32.0108 28.9428 31.3217 31.9139 29.9999C32.2783 30.7732 32.619 31.5524 32.9331 32.3494C28.4995 33.9461 24.6503 36.8423 21.8878 40.66C19.6111 38.2171 18.3412 35.0043 18.3325 31.665ZM24.104 42.6243C26.5326 39.1768 29.9655 36.5623 33.9345 35.1374C34.8734 38.116 35.4659 41.1929 35.7003 44.3072C34.3993 44.7456 33.0378 44.9785 31.665 44.9975C28.9614 44.9975 26.3227 44.1693 24.104 42.6243ZM38.5386 43.0302C38.2453 40.0674 37.6617 37.155 36.7817 34.3285C39.4064 33.8125 42.1066 33.8135 44.7309 34.3315C44.353 36.1295 43.608 37.8302 42.5425 39.327C41.477 40.8238 40.1139 42.0846 38.5386 43.0302Z" fill="white"/>
<circle cx="31.7" cy="31.7002" r="21" stroke="#FFB800"/>
</svg>
